#N canvas 70 398 1328 635 10;
#X obj 177 74 sendOSC;
#X msg 329 196 send /advance;
#X msg 91 16 disconnect;
#X msg 329 303 send /stop;
#X msg 329 276 send /recoil;
#X msg 329 249 send /rotateR;
#X msg 329 222 send /rotateL;
#X obj 328 87 key;
#X obj 328 134 select 119 97 100 115 32;
#X msg 329 325 send /pruebaSS;
#X msg 329 350 send /pruebaST;
#X obj -34 118 bng 15 250 50 0 empty empty empty 17 7 0 10 -262144
-1 -1;
#X obj 32 36 vsl 15 40 0 20 0 0 empty empty empty 0 -9 0 10 -262144
-1 -1 0 1;
#X obj -16 33 vsl 15 40 0 20 0 0 empty empty empty 0 -9 0 10 -262144
-1 -1 0 1;
#X obj 6 33 vsl 15 40 0 20 0 0 empty empty empty 0 -9 0 10 -262144
-1 -1 0 1;
#X msg -29 221 send /dormilonador \$1 \$2 \$3;
#X obj -30 258 print;
#X obj -31 151 pack 0 f f f;
#X obj -30 188 route 0;
#X floatatom -14 85 5 0 0 0 - - -;
#X floatatom 8 107 5 0 0 0 - - -;
#X floatatom 35 124 5 0 0 0 - - -;
#X obj 335 108 spigot;
#X obj 368 88 tgl 15 0 empty empty empty 17 7 0 10 -262144 -1 -1 1
1;
#X obj 80 401 hradio 15 1 0 12 empty empty empty 0 -8 0 10 -262144
-1 -1 0;
#X obj 52 468 route 0;
#X obj 52 441 pack 0 0 0;
#X obj 156 442 hsl 128 15 500 2200 0 0 empty empty empty -2 -8 0 10
-262144 -1 -1 0 1;
#X text 282 459 2200;
#X text 150 459 500;
#X floatatom 183 465 5 0 0 0 - - -;
#X floatatom 44 401 5 0 0 0 - - -;
#X obj 8 410 bng 15 250 50 0 empty empty empty 17 7 0 10 -262144 -1
-1;
#X obj 53 536 print;
#X obj 126 441 int;
#X msg 53 493 send /moverServo \$1 \$2;
#X obj -12 377 metro 300;
#X obj -16 352 tgl 15 0 empty empty empty 17 7 0 10 -262144 -1 -1 0
1;
#X text -19 330 CONTROL DE SERVOS;
#X text 77 376 # de servo;
#X text 153 424 Posición;
#X obj 62 514 s toSend;
#X obj 196 44 r toSend;
#X obj 329 380 s toSend;
#X obj 17 258 s toSend;
#X obj 440 487 hradio 15 1 0 12 empty empty empty 0 -8 0 10 -262144
-1 -1 0;
#X msg 440 515 send /QP \$1;
#X obj 440 542 s toSend;
#X obj 440 571 print preguntador;
#X obj 687 486 hradio 15 1 0 12 empty empty empty 0 -8 0 10 -262144
-1 -1 0;
#X obj 687 541 s toSend;
#X obj 687 570 print preguntador;
#X text 447 453 PREGUNTAR POSICION DE SERV0;
#X msg 687 514 send /Q \$1;
#X text 694 452 SERVO IS MOVING;
#X msg 507 412 send /arbitrarySerial;
#X obj -239 407 hradio 15 1 0 12 empty empty empty 0 -8 0 10 -262144
-1 -1 0;
#X obj -267 474 route 0;
#X obj -267 447 pack 0 0 0;
#X obj -163 448 hsl 128 15 500 2200 0 0 empty empty empty -2 -8 0 10
-262144 -1 -1 0 1;
#X text -37 465 2200;
#X text -169 465 500;
#X floatatom -136 471 5 0 0 0 - - -;
#X floatatom -275 407 5 0 0 0 - - -;
#X obj -311 416 bng 15 250 50 0 empty empty empty 17 7 0 10 -262144
-1 -1;
#X obj -266 542 print;
#X obj -193 447 int;
#X msg -266 499 send /moverServo \$1 \$2;
#X obj -331 383 metro 300;
#X obj -335 358 tgl 15 0 empty empty empty 17 7 0 10 -262144 -1 -1
0 1;
#X text -338 336 CONTROL DE SERVOS;
#X text -242 382 # de servo;
#X text -166 430 Posición;
#X obj -257 520 s toSend;
#X obj 240 494 random 1700;
#X obj 241 523 + 500;
#X obj 326 46 bng 15 250 50 0 empty empty empty 17 7 0 10 -262144 -1
-1;
#X obj 530 61 bng 15 250 50 0 empty empty empty 17 7 0 10 -262144 -1
-1;
#X text 344 44 CONTROL DE SERNAPODO;
#X text 324 64 DIRECCION;
#X obj 595 45 bng 15 250 50 0 empty empty empty 17 7 0 10 -262144 -1
-1;
#X obj 799 60 bng 15 250 50 0 empty empty empty 17 7 0 10 -262144 -1
-1;
#X text 613 43 ORDENES GENERALES ?;
#X msg 765 99 send /showBlobData \$1;
#X obj 616 84 tgl 15 0 empty empty empty 17 7 0 10 -262144 -1 -1 0
1;
#X obj 768 233 s toSend;
#X text 636 83 Mostar datos de blob;
#X obj 617 109 tgl 15 0 empty empty empty 17 7 0 10 -262144 -1 -1 0
1;
#X text 637 108 Mostrar modo;
#X msg 775 124 send /showMode \$1;
#X obj 610 246 bng 15 250 50 0 empty empty empty 17 7 0 10 -262144
-1 -1;
#X obj 814 261 bng 15 250 50 0 empty empty empty 17 7 0 10 -262144
-1 -1;
#X text 628 244 ORDENES DE MOVIMIENTO;
#X msg 822 360 send /setDestino \$1 \$2;
#X msg 733 343 0.5 0.5;
#X obj 815 385 s toSend;
#X obj 197 119 print sending;
#X obj 617 137 tgl 15 0 empty empty empty 17 7 0 10 -262144 -1 -1 0
1;
#X msg 782 152 send /showNecesidades \$1;
#X text 637 136 Mostrar necesidades;
#X obj 629 278 tgl 15 0 empty empty empty 17 7 0 10 -262144 -1 -1 0
1;
#X text 649 277 Modo estático;
#X msg 815 293 send /setStatic \$1;
#X text -239 57 CAL: 1 giro en 4.4;
#X obj -287 122 dumpOSC 9000;
#X obj -287 161 print;
#X obj -179 201 print TUIO;
#X obj -179 143 dumpOSC 3334;
#X obj -179 175 spigot;
#X obj -99 158 tgl 15 0 empty empty empty 17 7 0 10 -262144 -1 -1 1
1;
#X text 392 89 activar teclado;
#X obj 618 165 tgl 15 0 empty empty empty 17 7 0 10 -262144 -1 -1 0
1;
#X text 638 164 Mostrar TUIO;
#X msg 782 180 send /showTuio \$1;
#X text 639 192 Diga posicion;
#X msg 805 208 send /giveMePos;
#X obj 619 193 bng 15 250 50 0 empty empty empty 17 7 0 10 -262144
-1 -1;
#X text 364 19 OJO QUE LA CAMBIE !!!!;
#X msg 177 16 connect 192.168.1.2 9001;
#X connect 1 0 43 0;
#X connect 2 0 0 0;
#X connect 3 0 43 0;
#X connect 4 0 43 0;
#X connect 5 0 43 0;
#X connect 6 0 43 0;
#X connect 7 0 22 0;
#X connect 8 0 1 0;
#X connect 8 1 6 0;
#X connect 8 2 5 0;
#X connect 8 3 4 0;
#X connect 8 4 3 0;
#X connect 9 0 43 0;
#X connect 10 0 43 0;
#X connect 11 0 17 0;
#X connect 12 0 17 3;
#X connect 12 0 21 0;
#X connect 13 0 17 1;
#X connect 13 0 19 0;
#X connect 14 0 17 2;
#X connect 14 0 20 0;
#X connect 15 0 16 0;
#X connect 15 0 44 0;
#X connect 17 0 18 0;
#X connect 18 0 15 0;
#X connect 22 0 8 0;
#X connect 23 0 22 1;
#X connect 24 0 26 1;
#X connect 24 0 31 0;
#X connect 25 0 35 0;
#X connect 26 0 25 0;
#X connect 27 0 30 0;
#X connect 27 0 34 0;
#X connect 32 0 26 0;
#X connect 32 0 74 0;
#X connect 34 0 26 2;
#X connect 35 0 33 0;
#X connect 35 0 41 0;
#X connect 36 0 32 0;
#X connect 37 0 36 0;
#X connect 42 0 0 0;
#X connect 42 0 96 0;
#X connect 45 0 46 0;
#X connect 46 0 47 0;
#X connect 46 0 48 0;
#X connect 49 0 53 0;
#X connect 53 0 50 0;
#X connect 53 0 51 0;
#X connect 55 0 47 0;
#X connect 56 0 58 1;
#X connect 56 0 63 0;
#X connect 57 0 67 0;
#X connect 58 0 57 0;
#X connect 59 0 62 0;
#X connect 59 0 66 0;
#X connect 64 0 58 0;
#X connect 66 0 58 2;
#X connect 67 0 65 0;
#X connect 67 0 73 0;
#X connect 68 0 64 0;
#X connect 69 0 68 0;
#X connect 74 0 75 0;
#X connect 75 0 26 2;
#X connect 76 0 77 0;
#X connect 80 0 81 0;
#X connect 83 0 85 0;
#X connect 84 0 83 0;
#X connect 87 0 89 0;
#X connect 89 0 85 0;
#X connect 90 0 91 0;
#X connect 93 0 95 0;
#X connect 94 0 93 0;
#X connect 97 0 98 0;
#X connect 98 0 85 0;
#X connect 100 0 102 0;
#X connect 102 0 95 0;
#X connect 104 0 105 0;
#X connect 107 0 108 0;
#X connect 108 0 106 0;
#X connect 109 0 108 1;
#X connect 111 0 113 0;
#X connect 113 0 85 0;
#X connect 115 0 85 0;
#X connect 116 0 115 0;
#X connect 118 0 0 0;
