#N canvas 3 148 1417 723 10;
#X obj 177 74 sendOSC;
#X msg 329 196 send /advance;
#X msg 91 16 disconnect;
#X msg 329 303 send /stop;
#X msg 329 276 send /recoil;
#X msg 329 222 send /rotateL;
#X obj 328 87 key;
#X obj 328 134 select 119 97 100 115 32;
#X msg 329 350 send /pruebaST;
#X obj -34 118 bng 15 250 50 0 empty empty empty 17 7 0 10 -262144
-1 -1;
#X obj 32 36 vsl 15 40 0 20 0 0 empty empty empty 0 -9 0 10 -262144
-1 -1 0 1;
#X obj -16 33 vsl 15 40 0 20 0 0 empty empty empty 0 -9 0 10 -262144
-1 -1 0 1;
#X obj 7 29 vsl 15 40 0 20 0 0 empty empty empty 0 -9 0 10 -262144
-1 -1 0 1;
#X obj -30 258 print;
#X obj -30 188 route 0;
#X floatatom -14 85 5 0 0 0 - - -;
#X floatatom 8 107 5 0 0 0 - - -;
#X floatatom 35 124 5 0 0 0 - - -;
#X obj 335 108 spigot;
#X obj 368 88 tgl 15 0 empty empty empty 17 7 0 10 -262144 -1 -1 1
1;
#X obj 80 401 hradio 15 1 0 12 empty empty empty 0 -8 0 10 -262144
-1 -1 0;
#X obj 52 468 route 0;
#X obj 52 441 pack 0 0 0;
#X obj 156 442 hsl 128 15 500 2200 0 0 empty empty empty -2 -8 0 10
-262144 -1 -1 0 1;
#X text 282 459 2200;
#X text 150 459 500;
#X floatatom 183 465 5 0 0 0 - - -;
#X floatatom 44 401 5 0 0 0 - - -;
#X obj 8 410 bng 15 250 50 0 empty empty empty 17 7 0 10 -262144 -1
-1;
#X obj 53 536 print;
#X obj 126 441 int;
#X msg 53 493 send /moverServo \$1 \$2;
#X obj -12 377 metro 300;
#X obj -16 352 tgl 15 0 empty empty empty 17 7 0 10 -262144 -1 -1 0
1;
#X text -19 330 CONTROL DE SERVOS;
#X text 77 376 # de servo;
#X text 153 424 Posición;
#X obj 62 514 s toSend;
#X obj 196 44 r toSend;
#X obj 329 380 s toSend;
#X obj 17 258 s toSend;
#X obj 376 512 hradio 15 1 0 12 empty empty empty 0 -8 0 10 -262144
-1 -1 0;
#X msg 376 540 send /QP \$1;
#X obj 376 567 s toSend;
#X obj 376 596 print preguntador;
#X obj 114 596 hradio 15 1 0 12 empty empty empty 0 -8 0 10 -262144
-1 -1 0;
#X obj 114 651 s toSend;
#X obj 114 680 print preguntador;
#X text 383 478 PREGUNTAR POSICION DE SERV0;
#X msg 114 624 send /Q \$1;
#X text 121 562 SERVO IS MOVING;
#X msg 443 437 send /arbitrarySerial;
#X obj -239 407 hradio 15 1 0 12 empty empty empty 0 -8 0 10 -262144
-1 -1 0;
#X obj -267 474 route 0;
#X obj -267 447 pack 0 0 0;
#X obj -163 448 hsl 128 15 500 2200 0 0 empty empty empty -2 -8 0 10
-262144 -1 -1 0 1;
#X text -37 465 2200;
#X text -169 465 500;
#X floatatom -136 471 5 0 0 0 - - -;
#X floatatom -275 407 5 0 0 0 - - -;
#X obj -311 416 bng 15 250 50 0 empty empty empty 17 7 0 10 -262144
-1 -1;
#X obj -266 542 print;
#X obj -193 447 int;
#X msg -266 499 send /moverServo \$1 \$2;
#X obj -331 383 metro 300;
#X obj -335 358 tgl 15 0 empty empty empty 17 7 0 10 -262144 -1 -1
0 1;
#X text -338 336 CONTROL DE SERVOS;
#X text -242 382 # de servo;
#X text -166 430 Posición;
#X obj -257 520 s toSend;
#X obj 240 494 random 1700;
#X obj 241 523 + 500;
#X obj 326 46 bng 15 250 50 0 empty empty empty 17 7 0 10 -262144 -1
-1;
#X obj 530 61 bng 15 250 50 0 empty empty empty 17 7 0 10 -262144 -1
-1;
#X text 344 44 CONTROL DE SERNAPODO;
#X text 324 64 DIRECCION;
#X obj 595 45 bng 15 250 50 0 empty empty empty 17 7 0 10 -262144 -1
-1;
#X obj 799 60 bng 15 250 50 0 empty empty empty 17 7 0 10 -262144 -1
-1;
#X text 613 43 ORDENES GENERALES ?;
#X msg 765 99 send /showBlobData \$1;
#X obj 616 84 tgl 15 0 empty empty empty 17 7 0 10 -262144 -1 -1 0
1;
#X obj 765 292 s toSend;
#X text 636 83 Mostar datos de blob;
#X obj 617 109 tgl 15 0 empty empty empty 17 7 0 10 -262144 -1 -1 0
1;
#X text 637 108 Mostrar modo;
#X msg 775 124 send /showMode \$1;
#X obj 621 445 bng 15 250 50 0 empty empty empty 17 7 0 10 -262144
-1 -1;
#X obj 825 460 bng 15 250 50 0 empty empty empty 17 7 0 10 -262144
-1 -1;
#X text 639 443 ORDENES DE MOVIMIENTO;
#X msg 833 604 send /setDestino \$1 \$2;
#X obj 826 629 s toSend;
#X obj 196 119 print sending;
#X obj 617 137 tgl 15 0 empty empty empty 17 7 0 10 -262144 -1 -1 0
1;
#X msg 782 152 send /showNecesidades \$1;
#X text 637 136 Mostrar necesidades;
#X obj 640 477 tgl 15 0 empty empty empty 17 7 0 10 -262144 -1 -1 0
1;
#X text 660 476 Modo estático;
#X msg 826 492 send /setStatic \$1;
#X text -239 57 CAL: 1 giro en 4.4;
#X obj -287 179 print;
#X obj -179 201 print TUIO;
#X obj -179 143 dumpOSC 3334;
#X obj -179 175 spigot;
#X obj -99 158 tgl 15 0 empty empty empty 17 7 0 10 -262144 -1 -1 0
1;
#X text 392 89 activar teclado;
#X obj 618 165 tgl 15 0 empty empty empty 17 7 0 10 -262144 -1 -1 0
1;
#X text 638 164 Mostrar TUIO;
#X msg 782 180 send /showTuio \$1;
#X text 639 192 Diga posicion;
#X msg 805 208 send /giveMePos;
#X obj 619 193 bng 15 250 50 0 empty empty empty 17 7 0 10 -262144
-1 -1;
#X text 364 19 OJO QUE LA CAMBIE !!!!;
#X obj 641 505 tgl 15 0 empty empty empty 17 7 0 10 -262144 -1 -1 0
1;
#X text 661 504 Movimiento controlado;
#X msg 827 520 send /setControlledMotion \$1;
#X msg 329 249 send /rotateR;
#X text -240 75 ATENCION \, REACTIVISION TIENE;
#X text -241 91 QUE MANDAR A LA IP DEL SERNAPODO;
#X obj 642 536 tgl 15 0 empty empty empty 17 7 0 10 -262144 -1 -1 0
1;
#X text 662 535 Diga obstáculos;
#X msg 836 548 send /reportObstacles \$1;
#X obj -31 151 pack 0 f f f f f;
#X msg -29 221 send /dormilonador \$1 \$2 \$3 \$4 \$5;
#X floatatom 89 80 5 0 0 0 - - -;
#X msg 97 128 2000;
#X msg 151 163 connect 192.168.1.57 9001;
#N canvas 665 107 450 300 moveTime 0;
#X obj -177 112 bng 15 250 50 0 empty empty empty 17 7 0 10 -262144
-1 -1;
#X obj -111 30 vsl 15 40 0 20 0 0 empty empty empty 0 -9 0 10 -262144
-1 -1 0 1;
#X obj -159 27 vsl 15 40 0 20 0 0 empty empty empty 0 -9 0 10 -262144
-1 -1 0 1;
#X obj -136 23 vsl 15 40 0 20 0 0 empty empty empty 0 -9 0 10 -262144
-1 -1 0 1;
#X obj -173 252 print;
#X obj -173 182 route 0;
#X floatatom -157 79 5 0 0 0 - - -;
#X floatatom -135 101 5 0 0 0 - - -;
#X floatatom -108 118 5 0 0 0 - - -;
#X obj -174 145 pack 0 f f f f f;
#X msg -51 106 2000;
#X obj -84 42 vsl 15 40 0 180 0 0 empty empty empty 0 -9 0 10 -262144
-1 -1 0 1;
#X msg -173 215 send /dormilonadorTime \$1 \$2 \$3 \$4 \$5;
#X obj -111 253 outlet;
#X connect 0 0 9 0;
#X connect 1 0 8 0;
#X connect 1 0 9 3;
#X connect 2 0 6 0;
#X connect 2 0 9 1;
#X connect 3 0 7 0;
#X connect 3 0 9 2;
#X connect 5 0 12 0;
#X connect 9 0 5 0;
#X connect 10 0 9 5;
#X connect 11 0 9 4;
#X connect 12 0 4 0;
#X connect 12 0 13 0;
#X restore -93 290 pd moveTime;
#X obj -96 315 s toSend;
#X msg 329 325 send /pruebaSS;
#X msg 743 564 0 0;
#X msg 744 587 0 0.5;
#X msg 744 612 1 1;
#X text 639 216 reportar posicion;
#X obj 619 245 vradio 15 1 0 2 empty empty empty 0 -8 0 10 -262144
-1 -1 0;
#X text 640 243 Camara;
#X text 641 260 Kinect;
#X msg 841 275 send /vision \$1;
#X msg 765 353 send /reportAddress \$1 \$2;
#X obj 716 323 bng 15 250 50 0 empty empty empty 17 7 0 10 -262144
-1 -1;
#X msg 717 305 9001;
#X obj 618 336 pack s f;
#X text 616 287 reportAddress;
#X msg 618 306 192.168.0.104;
#X obj 622 218 tgl 15 0 empty empty empty 17 7 0 10 -262144 -1 -1 0
1;
#X msg 805 232 send /reportarPosicion \$1;
#X msg 177 18 connect 192.168.43.23 9001;
#X msg 742 640 0.3 0.3;
#X obj -287 122 dumpOSC 9001;
#X connect 1 0 39 0;
#X connect 2 0 0 0;
#X connect 3 0 39 0;
#X connect 4 0 39 0;
#X connect 5 0 39 0;
#X connect 6 0 18 0;
#X connect 7 0 1 0;
#X connect 7 1 5 0;
#X connect 7 2 115 0;
#X connect 7 3 4 0;
#X connect 7 4 3 0;
#X connect 8 0 39 0;
#X connect 9 0 121 0;
#X connect 10 0 17 0;
#X connect 10 0 121 3;
#X connect 11 0 15 0;
#X connect 11 0 121 1;
#X connect 12 0 16 0;
#X connect 12 0 121 2;
#X connect 14 0 122 0;
#X connect 17 0 121 4;
#X connect 18 0 7 0;
#X connect 19 0 18 1;
#X connect 20 0 22 1;
#X connect 20 0 27 0;
#X connect 21 0 31 0;
#X connect 22 0 21 0;
#X connect 23 0 26 0;
#X connect 23 0 30 0;
#X connect 28 0 22 0;
#X connect 28 0 70 0;
#X connect 30 0 22 2;
#X connect 31 0 29 0;
#X connect 31 0 37 0;
#X connect 32 0 28 0;
#X connect 33 0 32 0;
#X connect 38 0 0 0;
#X connect 38 0 91 0;
#X connect 41 0 42 0;
#X connect 42 0 43 0;
#X connect 42 0 44 0;
#X connect 45 0 49 0;
#X connect 49 0 46 0;
#X connect 49 0 47 0;
#X connect 51 0 43 0;
#X connect 52 0 54 1;
#X connect 52 0 59 0;
#X connect 53 0 63 0;
#X connect 54 0 53 0;
#X connect 55 0 58 0;
#X connect 55 0 62 0;
#X connect 60 0 54 0;
#X connect 62 0 54 2;
#X connect 63 0 61 0;
#X connect 63 0 69 0;
#X connect 64 0 60 0;
#X connect 65 0 64 0;
#X connect 70 0 71 0;
#X connect 71 0 22 2;
#X connect 72 0 73 0;
#X connect 76 0 77 0;
#X connect 79 0 81 0;
#X connect 80 0 79 0;
#X connect 83 0 85 0;
#X connect 85 0 81 0;
#X connect 86 0 87 0;
#X connect 89 0 90 0;
#X connect 92 0 93 0;
#X connect 93 0 81 0;
#X connect 95 0 97 0;
#X connect 97 0 90 0;
#X connect 101 0 102 0;
#X connect 102 0 100 0;
#X connect 103 0 102 1;
#X connect 105 0 107 0;
#X connect 107 0 81 0;
#X connect 109 0 81 0;
#X connect 110 0 109 0;
#X connect 112 0 114 0;
#X connect 115 0 39 0;
#X connect 118 0 120 0;
#X connect 120 0 90 0;
#X connect 121 0 14 0;
#X connect 122 0 13 0;
#X connect 122 0 40 0;
#X connect 124 0 121 5;
#X connect 125 0 0 0;
#X connect 126 0 127 0;
#X connect 128 0 39 0;
#X connect 129 0 89 0;
#X connect 130 0 89 0;
#X connect 131 0 89 0;
#X connect 133 0 136 0;
#X connect 136 0 81 0;
#X connect 137 0 81 0;
#X connect 138 0 139 0;
#X connect 139 0 140 1;
#X connect 140 0 137 0;
#X connect 142 0 138 0;
#X connect 142 0 140 0;
#X connect 143 0 144 0;
#X connect 144 0 81 0;
#X connect 145 0 0 0;
#X connect 146 0 89 0;
#X connect 147 0 99 0;
