#N canvas 705 129 506 368 10;
#X obj 218 91 sendOSC;
#X obj 261 40;
#X floatatom 281 50 5 0 0 0 - - -;
#X msg 275 189 send /advance;
#X msg 187 39 connect 192.168.1.25 9000;
#X obj 153 79;
#X msg 101 39 disconnect;
#X msg 286 324 send /stop;
#X msg 286 292 send /recoil;
#X msg 286 259 send /rotateR;
#X msg 284 226 send /rotateL;
#X obj 274 89 key;
#X obj 390 89 print key;
#X obj 274 127 select 119 97 100 115 32;
#X connect 3 0 0 0;
#X connect 4 0 0 0;
#X connect 6 0 0 0;
#X connect 7 0 0 0;
#X connect 8 0 0 0;
#X connect 9 0 0 0;
#X connect 10 0 0 0;
#X connect 11 0 12 0;
#X connect 11 0 13 0;
#X connect 13 0 3 0;
#X connect 13 1 10 0;
#X connect 13 2 9 0;
#X connect 13 3 8 0;
#X connect 13 4 7 0;
