#N canvas 105 77 1328 635 10;
#X obj 177 74 sendOSC;
#X msg 329 196 send /advance;
#X msg 91 16 disconnect;
#X msg 329 303 send /stop;
#X msg 329 276 send /recoil;
#X msg 329 249 send /rotateR;
#X msg 329 222 send /rotateL;
#X obj 328 87 key;
#X obj 328 134 select 119 97 100 115 32;
#X msg 329 325 send /pruebaSS;
#X msg 329 350 send /pruebaST;
#X obj -34 118 bng 15 250 50 0 empty empty empty 17 7 0 10 -262144
-1 -1;
#X obj 32 36 vsl 15 40 0 20 0 0 empty empty empty 0 -9 0 10 -262144
-1 -1 0 1;
#X obj -16 33 vsl 15 40 0 20 0 0 empty empty empty 0 -9 0 10 -262144
-1 -1 0 1;
#X obj 6 33 vsl 15 40 0 20 0 0 empty empty empty 0 -9 0 10 -262144
-1 -1 0 1;
#X msg -29 221 send /dormilonador \$1 \$2 \$3;
#X obj -30 258 print;
#X obj -31 151 pack 0 f f f;
#X obj -30 188 route 0;
#X floatatom -14 85 5 0 0 0 - - -;
#X floatatom 8 107 5 0 0 0 - - -;
#X floatatom 35 124 5 0 0 0 - - -;
#X obj 335 108 spigot;
#X obj 368 88 tgl 15 0 empty empty empty 17 7 0 10 -262144 -1 -1 0
1;
#X obj 80 401 hradio 15 1 0 12 empty empty empty 0 -8 0 10 -262144
-1 -1 3;
#X obj 52 468 route 0;
#X obj 52 441 pack 0 0 0;
#X obj 156 442 hsl 128 15 500 2200 0 0 empty empty empty -2 -8 0 10
-262144 -1 -1 5700 1;
#X text 282 459 2200;
#X text 150 459 500;
#X floatatom 183 465 5 0 0 0 - - -;
#X floatatom 44 401 5 0 0 0 - - -;
#X obj 8 410 bng 15 250 50 0 empty empty empty 17 7 0 10 -262144 -1
-1;
#X obj 53 536 print;
#X obj 126 441 int;
#X msg 53 493 send /moverServo \$1 \$2;
#X obj -12 377 metro 300;
#X obj -16 352 tgl 15 0 empty empty empty 17 7 0 10 -262144 -1 -1 0
1;
#X msg 177 16 connect 192.168.1.2 9001;
#X text -19 330 CONTROL DE SERVOS;
#X text 77 376 # de servo;
#X text 153 424 Posición;
#X obj 62 514 s toSend;
#X obj 196 44 r toSend;
#X text 324 64 CONTROL DE SERNAPODO;
#X obj 329 380 s toSend;
#X obj 17 258 s toSend;
#X text 392 89 activar teclado;
#X obj 444 416 hradio 15 1 0 12 empty empty empty 0 -8 0 10 -262144
-1 -1 0;
#X msg 444 444 send /QP \$1;
#X obj 444 471 s toSend;
#X obj 444 500 print preguntador;
#X obj 495 306;
#X obj 691 415 hradio 15 1 0 12 empty empty empty 0 -8 0 10 -262144
-1 -1 0;
#X obj 691 470 s toSend;
#X obj 691 499 print preguntador;
#X text 451 382 PREGUNTAR POSICION DE SERV0;
#X msg 691 443 send /Q \$1;
#X text 698 381 SERVO IS MOVING;
#X msg 548 329 send /arbitrarySerial;
#X obj -239 407 hradio 15 1 0 12 empty empty empty 0 -8 0 10 -262144
-1 -1 0;
#X obj -267 474 route 0;
#X obj -267 447 pack 0 0 0;
#X obj -163 448 hsl 128 15 500 2200 0 0 empty empty empty -2 -8 0 10
-262144 -1 -1 3300 1;
#X text -37 465 2200;
#X text -169 465 500;
#X floatatom -136 471 5 0 0 0 - - -;
#X floatatom -275 407 5 0 0 0 - - -;
#X obj -311 416 bng 15 250 50 0 empty empty empty 17 7 0 10 -262144
-1 -1;
#X obj -266 542 print;
#X obj -193 447 int;
#X msg -266 499 send /moverServo \$1 \$2;
#X obj -331 383 metro 300;
#X obj -335 358 tgl 15 0 empty empty empty 17 7 0 10 -262144 -1 -1
0 1;
#X text -338 336 CONTROL DE SERVOS;
#X text -242 382 # de servo;
#X text -166 430 Posición;
#X obj -257 520 s toSend;
#X obj 240 494 random 1700;
#X obj 241 523 + 500;
#X connect 1 0 45 0;
#X connect 2 0 0 0;
#X connect 3 0 45 0;
#X connect 4 0 45 0;
#X connect 5 0 45 0;
#X connect 6 0 45 0;
#X connect 7 0 22 0;
#X connect 8 0 1 0;
#X connect 8 1 6 0;
#X connect 8 2 5 0;
#X connect 8 3 4 0;
#X connect 8 4 3 0;
#X connect 9 0 45 0;
#X connect 10 0 45 0;
#X connect 11 0 17 0;
#X connect 12 0 17 3;
#X connect 12 0 21 0;
#X connect 13 0 17 1;
#X connect 13 0 19 0;
#X connect 14 0 17 2;
#X connect 14 0 20 0;
#X connect 15 0 16 0;
#X connect 15 0 46 0;
#X connect 17 0 18 0;
#X connect 18 0 15 0;
#X connect 22 0 8 0;
#X connect 23 0 22 1;
#X connect 24 0 26 1;
#X connect 24 0 31 0;
#X connect 25 0 35 0;
#X connect 26 0 25 0;
#X connect 27 0 30 0;
#X connect 27 0 34 0;
#X connect 32 0 26 0;
#X connect 32 0 78 0;
#X connect 34 0 26 2;
#X connect 35 0 33 0;
#X connect 35 0 42 0;
#X connect 36 0 32 0;
#X connect 37 0 36 0;
#X connect 38 0 0 0;
#X connect 43 0 0 0;
#X connect 48 0 49 0;
#X connect 49 0 50 0;
#X connect 49 0 51 0;
#X connect 53 0 57 0;
#X connect 57 0 54 0;
#X connect 57 0 55 0;
#X connect 59 0 50 0;
#X connect 60 0 62 1;
#X connect 60 0 67 0;
#X connect 61 0 71 0;
#X connect 62 0 61 0;
#X connect 63 0 66 0;
#X connect 63 0 70 0;
#X connect 68 0 62 0;
#X connect 70 0 62 2;
#X connect 71 0 69 0;
#X connect 71 0 77 0;
#X connect 72 0 68 0;
#X connect 73 0 72 0;
#X connect 78 0 79 0;
#X connect 79 0 26 2;
