#N canvas 750 31 646 591 10;
#X obj 218 91 sendOSC;
#X obj 261 40;
#X floatatom 281 50 5 0 0 0 - - -;
#X msg 275 189 send /advance;
#X msg 101 39 disconnect;
#X msg 286 324 send /stop;
#X msg 286 292 send /recoil;
#X msg 286 259 send /rotateR;
#X msg 284 226 send /rotateL;
#X obj 274 89 key;
#X obj 462 98 print key;
#X obj 274 127 select 119 97 100 115 32;
#X msg 187 39 connect 192.168.1.110 9000;
#X msg 284 349 send /pruebaSS;
#X msg 283 380 send /pruebaST;
#X obj 74 164 bng 15 250 50 0 empty empty empty 17 7 0 10 -262144 -1
-1;
#X obj 140 82 vsl 15 40 0 20 0 0 empty empty empty 0 -9 0 10 -262144
-1 -1 1700 1;
#X obj 92 79 vsl 15 40 0 20 0 0 empty empty empty 0 -9 0 10 -262144
-1 -1 600 1;
#X obj 114 79 vsl 15 40 0 20 0 0 empty empty empty 0 -9 0 10 -262144
-1 -1 600 1;
#X obj 4 140 spigot;
#X msg 79 267 send /dormilonador \$1 \$2 \$3;
#X obj 78 304 print;
#X obj 77 197 pack 0 f f f;
#X obj 78 234 route 0;
#X floatatom 94 131 5 0 0 0 - - -;
#X floatatom 116 153 5 0 0 0 - - -;
#X floatatom 143 170 5 0 0 0 - - -;
#X obj 324 103 spigot;
#X obj 357 83 tgl 15 0 empty empty empty 17 7 0 10 -262144 -1 -1 0
1;
#X obj 103 422 hradio 15 1 0 12 empty empty empty 0 -8 0 10 -262144
-1 -1 0;
#X obj 76 473 route 0;
#X obj 76 446 pack 0 0 0;
#X obj 180 447 hsl 128 15 500 2200 0 0 empty empty empty -2 -8 0 10
-262144 -1 -1 0 1;
#X text 306 464 2200;
#X text 174 464 500;
#X floatatom 207 470 5 0 0 0 - - -;
#X floatatom 67 422 5 0 0 0 - - -;
#X obj 36 446 bng 15 250 50 0 empty empty empty 17 7 0 10 -262144 -1
-1;
#X obj 98 532 print;
#X obj 150 446 int;
#X msg 77 498 send /moverServo \$1 \$2;
#X obj 16 413 metro 300;
#X obj 12 388 tgl 15 0 empty empty empty 17 7 0 10 -262144 -1 -1 0
1;
#X connect 3 0 0 0;
#X connect 4 0 0 0;
#X connect 5 0 0 0;
#X connect 6 0 0 0;
#X connect 7 0 0 0;
#X connect 8 0 0 0;
#X connect 9 0 11 0;
#X connect 11 0 3 0;
#X connect 11 1 8 0;
#X connect 11 2 7 0;
#X connect 11 3 6 0;
#X connect 11 4 5 0;
#X connect 12 0 0 0;
#X connect 13 0 0 0;
#X connect 14 0 0 0;
#X connect 15 0 22 0;
#X connect 16 0 22 3;
#X connect 16 0 26 0;
#X connect 17 0 22 1;
#X connect 17 0 24 0;
#X connect 18 0 22 2;
#X connect 18 0 25 0;
#X connect 20 0 21 0;
#X connect 20 0 0 0;
#X connect 22 0 23 0;
#X connect 23 0 20 0;
#X connect 28 0 27 1;
#X connect 29 0 31 1;
#X connect 29 0 36 0;
#X connect 30 0 40 0;
#X connect 31 0 30 0;
#X connect 32 0 35 0;
#X connect 32 0 39 0;
#X connect 37 0 31 0;
#X connect 39 0 31 2;
#X connect 40 0 38 0;
#X connect 40 0 0 0;
#X connect 41 0 37 0;
#X connect 42 0 41 0;
