#N canvas 619 324 506 368 10;
#X obj 218 91 sendOSC;
#X obj 261 40;
#X floatatom 281 50 5 0 0 0 - - -;
#X msg 275 176 send /advance;
#X msg 187 39 connect 192.168.1.25 9000;
#X obj 153 79;
#X msg 127 43 disconnect;
#X msg 269 206 send /stop;
#X msg 264 239 send /recoil;
#X msg 260 265 send /rotateR;
#X msg 257 287 send /rotateL;
#X connect 3 0 0 0;
#X connect 4 0 0 0;
#X connect 6 0 0 0;
#X connect 7 0 0 0;
#X connect 8 0 0 0;
#X connect 9 0 0 0;
#X connect 10 0 0 0;
